<mxfile host="app.diagrams.net" modified="2020-06-25T22:57:26.950Z" agent="5.0 (Macintosh; Intel Mac OS X 10_15_5) AppleWebKit/537.36 (KHTML, like Gecko) Chrome/81.0.4044.138 Safari/537.36" etag="tJltnh0FDjSDcb5GO7kD" version="13.3.5" type="github">
  <diagram id="17HYyiUrkeb9DhzLBrrV" name="Page-1">
    <mxGraphModel dx="925" dy="491" grid="1" gridSize="10" guides="1" tooltips="1" connect="1" arrows="1" fold="1" page="1" pageScale="1" pageWidth="850" pageHeight="1100" math="0" shadow="0">
      <root>
        <mxCell id="0" />
        <mxCell id="1" parent="0" />
        <mxCell id="tAsX6-3AnnTcu6kCvqMK-1" value="" style="rounded=0;whiteSpace=wrap;html=1;" vertex="1" parent="1">
          <mxGeometry x="350" y="90" width="120" height="60" as="geometry" />
        </mxCell>
        <mxCell id="tAsX6-3AnnTcu6kCvqMK-3" style="edgeStyle=orthogonalEdgeStyle;rounded=0;orthogonalLoop=1;jettySize=auto;html=1;entryX=0.5;entryY=1;entryDx=0;entryDy=0;" edge="1" parent="1" source="tAsX6-3AnnTcu6kCvqMK-2" target="tAsX6-3AnnTcu6kCvqMK-1">
          <mxGeometry relative="1" as="geometry" />
        </mxCell>
        <mxCell id="tAsX6-3AnnTcu6kCvqMK-2" value="" style="rounded=0;whiteSpace=wrap;html=1;" vertex="1" parent="1">
          <mxGeometry x="220" y="260" width="120" height="70" as="geometry" />
        </mxCell>
      </root>
    </mxGraphModel>
  </diagram>
</mxfile>
